<svg xmlns="http://www.w3.org/2000/svg" version="1.1" width="50%" height="50%" viewBox="0 190 1000 190"><rect width="1000" height="600" x="0" y="0" fill="transparent"/><g><rect width="333.3333333333333" height="333.3333333333333" rx="13.333333333333334" ry="13.333333333333334" y="274.9104574729055" fill="#591e8a" transform="matrix(0.4946807328617764,0,0,0.4946807328617764,0,81.5603021807301)" x="252.688232421875"/><path d="M345.8492848398537 516.5771192518223L345.8492848398537 516.5771192518223Q333.0656999113753 516.5771192518223 323.359644687901 511.57613348119077Q313.68318109620554 506.5751477105592 307.49853005441855 498.0527577582402L307.49853005441855 498.0527577582402L321.554555149389 485.03243977553075Q325.60860870309625 491.00994939486554 331.6748932177677 494.20584562698514Q337.74117773243916 497.40174185910473 345.1982689407182 497.40174185910473L345.1982689407182 497.40174185910473Q352.65536014899726 497.40174185910473 358.42572834587986 494.20584562698514Q364.1665049109836 491.00994939486554 367.4807676702187 484.7365234577419Q370.76543879767496 478.43350588883936 370.76543879767496 469.28969166916386L370.76543879767496 469.28969166916386L370.76543879767496 366.57713776465346L390.79897351198025 366.57713776465346L390.79897351198025 468.224392925124Q390.79897351198025 482.901842287451 384.93983041976094 493.79156278208075Q379.0806873275417 504.6516916449316 368.96034925916297 510.59960963248756Q358.84001119078425 516.5771192518223 345.8492848398537 516.5771192518223ZM481.1422253329166 514.4465217637426L461.1086906186114 514.4465217637426L461.1086906186114 370.8383327408129L481.1422253329166 370.8383327408129L481.1422253329166 514.4465217637426ZM531.2112663027904 384.89435783578335L410.8325082262855 384.89435783578335L410.8325082262855 366.57713776465346L531.2112663027904 366.57713776465346L531.2112663027904 384.89435783578335Z " fill="#ffffff" transform="matrix(0.4946807328617764,0,0,0.4946807328617764,0,81.5603021807301)"/><path d="M706.6462825043736 516.5771158487269L706.6462825043736 516.5771158487269Q694.2158213629122 516.5771158487269 684.7778786443951 511.7142734114421Q675.3687101414832 506.8514309741574 669.3548990799891 498.56445687984973L669.3548990799891 498.56445687984973L683.0226514924757 485.90380201354634Q686.9647190303929 491.7161935658038 692.8634332294662 494.8238088511692Q698.7621474285393 497.93142413653453 706.0132497610585 497.93142413653453L706.0132497610585 497.93142413653453Q713.2643520935778 497.93142413653453 718.8753241365986 494.8238088511692Q724.4575219640142 491.7161935658038 727.6802341118005 485.61605985749395Q730.8741720439816 479.4871519335789 730.8741720439816 470.5959193115613L730.8741720439816 470.5959193115613L730.8741720439816 370.72061694579065L750.3543160087256 370.72061694579065L750.3543160087256 469.56004754977283Q750.3543160087256 483.8320584899694 744.6570213188891 494.42096983269585Q738.9597266290526 504.9811069598171 729.1189448920622 510.76472429646935Q719.2781631550719 516.5771158487269 706.6462825043736 516.5771158487269ZM824.3328243297849 516.5771158487269L824.3328243297849 516.5771158487269Q809.8306196647463 516.5771158487269 798.2058365602314 509.7288525346809Q786.6098276713217 502.9093634362402 779.7903385728811 491.19825768490955Q772.9420752588351 479.4871519335789 772.9420752588351 464.98494726854045L772.9420752588351 464.98494726854045Q772.9420752588351 450.68416211273865 779.7903385728811 439.2032500862499Q786.6098276713217 427.6935638441559 798.2058365602314 420.87407474571523Q809.8306196647463 414.0258114316693 824.3328243297849 414.0258114316693L824.3328243297849 414.0258114316693Q838.6048352699813 414.0258114316693 850.315941021312 420.7589778832943Q862.0270467726427 427.49214433491926 868.8753100866886 439.088153223829Q875.6947991851293 450.68416211273865 875.6947991851293 464.98494726854045L875.6947991851293 464.98494726854045Q875.6947991851293 479.4871519335789 868.8753100866886 491.19825768490955Q862.0270467726427 502.9093634362402 850.315941021312 509.7288525346809Q838.6048352699813 516.5771158487269 824.3328243297849 516.5771158487269ZM824.3328243297849 498.56445687984973L824.3328243297849 498.56445687984973Q833.655670185881 498.56445687984973 840.9067725184002 494.190776107854Q848.1578748509194 489.8458695514635 852.3013618980733 482.2782508472867Q856.4448489452271 474.73940635871514 856.4448489452271 464.98494726854045L856.4448489452271 464.98494726854045Q856.4448489452271 455.46068190320767 852.1862650356524 448.00816006145186Q847.9276811260775 440.55563821969594 840.7916756559792 436.29705431012115Q833.655670185881 432.0384704005464 824.3328243297849 432.0384704005464L824.3328243297849 432.0384704005464Q815.0099784736888 432.0384704005464 807.7588761411695 436.29705431012115Q800.5077738086502 440.55563821969594 796.3642867614964 448.00816006145186Q792.2207997143425 455.46068190320767 792.2207997143425 464.98494726854045L792.2207997143425 464.98494726854045Q792.2207997143425 474.73940635871514 796.3642867614964 482.2782508472867Q800.5077738086502 489.8458695514635 807.7588761411695 494.190776107854Q815.0099784736888 498.56445687984973 824.3328243297849 498.56445687984973ZM948.4072420195582 516.5771158487269L948.4072420195582 516.5771158487269Q937.242846364727 516.5771158487269 928.2077426646831 511.91569292067874Q919.2014131802446 507.25426999263067 913.8206348620657 498.967295898323Q908.4398565438867 490.6803218040153 907.8068238005716 480.1201846768941L907.8068238005716 480.1201846768941L907.8068238005716 450.482742603502Q908.4398565438867 439.72118596714415 913.9357317244866 431.5205345196522Q919.4028326894813 423.34865728776543 928.437936389525 418.68723435971737Q937.4442658739636 414.0258114316693 948.4072420195582 414.0258114316693L948.4072420195582 414.0258114316693Q961.8735749228081 414.0258114316693 972.7502284215869 420.87407474571523Q983.6268819203658 427.6935638441559 989.8421124910965 439.28957273306565Q996.0573430618273 450.91435583758056 996.0573430618273 465.416560502619L996.0573430618273 465.416560502619Q996.0573430618273 479.91876516765745 989.8421124910965 491.51477405656715Q983.6268819203658 503.11078294547684 972.7502284215869 509.8439493971018Q961.8735749228081 516.5771158487269 948.4072420195582 516.5771158487269ZM915.2593456423274 514.5053723251499L896.6136539301351 514.5053723251499L896.6136539301351 366.5771298986368L915.2593456423274 366.5771298986368L915.2593456423274 440.12402498561744L911.7488913384888 463.949075506752L915.2593456423274 487.97554553712325L915.2593456423274 514.5053723251499ZM945.2996267341928 498.967295898323L945.2996267341928 498.967295898323Q954.6224725902889 498.967295898323 961.6721554135715 494.62238934193255Q968.7218382368541 490.277482785542 972.8653252840079 482.70986408136525Q977.0088123311617 475.14224537718843 977.0088123311617 465.1863667777771L977.0088123311617 465.1863667777771Q977.0088123311617 455.46068190320767 972.8653252840079 447.8067405522152Q968.7218382368541 440.12402498561744 961.6721554135715 435.89421529164787Q954.6224725902889 431.6356313820731 945.5298204590347 431.6356313820731L945.5298204590347 431.6356313820731Q936.2069746029385 431.6356313820731 929.1572917796559 435.89421529164787Q922.1076089563733 440.12402498561744 918.1655414184561 447.8067405522152Q914.223473880539 455.46068190320767 914.223473880539 465.416560502619L914.223473880539 465.416560502619Q914.223473880539 475.14224537718843 918.0792187716404 482.70986408136525Q921.9061894471367 490.277482785542 929.0421949172351 494.62238934193255Q936.2069746029385 498.967295898323 945.2996267341928 498.967295898323ZM1088.6815430950787 470.5959193115613L1020.5154263262771 470.5959193115613L1020.5154263262771 452.98609936115747L1088.6815430950787 452.98609936115747L1088.6815430950787 470.5959193115613ZM1145.8559095026808 514.5053723251499L1127.2102177904885 514.5053723251499L1127.2102177904885 374.8641039929445L1145.8559095026808 374.8641039929445L1145.8559095026808 514.5053723251499ZM1170.0837990422885 433.07434216233486L1102.9823282508805 433.07434216233486L1102.9823282508805 416.0975549552462L1170.0837990422885 416.0975549552462L1170.0837990422885 433.07434216233486ZM1206.9723434481998 514.5053723251499L1188.3266517360075 514.5053723251499L1188.3266517360075 416.0975549552462L1206.9723434481998 416.0975549552462L1206.9723434481998 514.5053723251499ZM1206.9723434481998 458.3668776793364L1206.9723434481998 458.3668776793364L1199.9226606249172 455.259262393971Q1199.9226606249172 436.4121511725421 1208.6412479533035 425.2189813021057Q1217.3310610660844 414.0258114316693 1233.703589745463 414.0258114316693L1233.703589745463 414.0258114316693Q1241.1561115872191 414.0258114316693 1247.169922648713 416.61549083614045Q1253.1837337102072 419.2051702406116 1258.3630925191496 425.2189813021057L1258.3630925191496 425.2189813021057L1246.1340508869248 437.8508619528039Q1243.0264356015591 434.54182715820184 1239.2857875728787 433.07434216233486Q1235.5739137598034 431.6356313820731 1230.5959744600978 431.6356313820731L1230.5959744600978 431.6356313820731Q1220.2372568422134 431.6356313820731 1213.5904130374038 438.25370097127717Q1206.9723434481998 444.90054477608646 1206.9723434481998 458.3668776793364ZM1310.1566806085725 516.5771158487269L1310.1566806085725 516.5771158487269Q1296.6903477053224 516.5771158487269 1285.6985973441228 509.8439493971018Q1274.7068469829228 503.11078294547684 1268.4052937653764 491.51477405656715Q1262.074966332225 479.91876516765745 1262.074966332225 465.416560502619L1262.074966332225 465.416560502619Q1262.074966332225 450.91435583758056 1268.4052937653764 439.28957273306565Q1274.7068469829228 427.6935638441559 1285.5835004817018 420.87407474571523Q1296.4601539804808 414.0258114316693 1310.1566806085725 414.0258114316693L1310.1566806085725 414.0258114316693Q1321.3210762634037 414.0258114316693 1330.1259862386055 418.68723435971737Q1338.9308962138075 423.34865728776543 1344.3404487475918 431.5205345196522Q1349.7212270657706 439.72118596714415 1350.3254855934806 450.482742603502L1350.3254855934806 450.482742603502L1350.3254855934806 480.1201846768941Q1349.7212270657706 490.6803218040153 1344.4267713944073 498.967295898323Q1339.1610899386494 507.25426999263067 1330.3561799634476 511.91569292067874Q1321.5512699882456 516.5771158487269 1310.1566806085725 516.5771158487269ZM1313.2642958939377 498.967295898323L1313.2642958939377 498.967295898323Q1327.133467815661 498.967295898323 1335.6218614192055 489.5293531798059Q1344.1102550227497 480.1201846768941 1344.1102550227497 465.416560502619L1344.1102550227497 465.416560502619Q1344.1102550227497 455.259262393971 1340.2832843472536 447.69164368979426Q1336.4563136717575 440.12402498561744 1329.4066308484748 435.89421529164787Q1322.3569480251922 431.6356313820731 1313.034102169096 431.6356313820731L1313.034102169096 431.6356313820731Q1303.711256313 431.6356313820731 1296.5752508429014 435.9805379384636Q1289.4392453728033 440.3254444948541 1285.3820809724652 447.8930631990309Q1281.3536907877324 455.46068190320767 1281.3536907877324 465.1863667777771L1281.3536907877324 465.1863667777771Q1281.3536907877324 475.14224537718843 1285.3820809724652 482.70986408136525Q1289.4392453728033 490.277482785542 1296.6903477053224 494.62238934193255Q1303.9414500378416 498.967295898323 1313.2642958939377 498.967295898323ZM1361.7200749731537 514.5053723251499L1342.8729637517247 514.5053723251499L1342.8729637517247 487.97554553712325L1346.4121922711686 463.949075506752L1342.8729637517247 440.12402498561744L1342.8729637517247 416.0975549552462L1361.7200749731537 416.0975549552462L1361.7200749731537 514.5053723251499ZM1433.8282592798723 516.5771158487269L1433.8282592798723 516.5771158487269Q1419.326054614834 516.5771158487269 1407.6149488635033 509.7288525346809Q1395.9038431121728 502.9093634362402 1389.1706766605478 491.19825768490955Q1382.437510208923 479.4871519335789 1382.437510208923 465.1863667777771L1382.437510208923 465.1863667777771Q1382.437510208923 450.68416211273865 1389.1706766605478 439.088153223829Q1395.9038431121728 427.49214433491926 1407.6149488635033 420.7589778832943Q1419.326054614834 414.0258114316693 1433.8282592798723 414.0258114316693L1433.8282592798723 414.0258114316693Q1445.2228486595457 414.0258114316693 1454.948533534115 418.2843953412441Q1464.7029926242897 422.5142050352136 1471.752675447572 430.59975962028466L1471.752675447572 430.59975962028466L1459.3222143061107 443.0302207617462Q1454.7471140248786 437.64944244356724 1448.21536708249 434.85834352985944Q1441.712394355707 432.0384704005464 1433.8282592798723 432.0384704005464L1433.8282592798723 432.0384704005464Q1424.5054134237766 432.0384704005464 1417.254311091257 436.29705431012115Q1410.0032087587379 440.55563821969594 1405.8597217115841 448.00816006145186Q1401.7162346644302 455.46068190320767 1401.7162346644302 465.1863667777771L1401.7162346644302 465.1863667777771Q1401.7162346644302 474.9408258679518 1405.8597217115841 482.39334770970765Q1410.0032087587379 489.8458695514635 1417.254311091257 494.190776107854Q1424.5054134237766 498.56445687984973 1433.8282592798723 498.56445687984973L1433.8282592798723 498.56445687984973Q1441.712394355707 498.56445687984973 1448.21536708249 495.7445837505367Q1454.7471140248786 492.95348483682886 1459.5236338153472 487.57270651864997L1459.5236338153472 487.57270651864997L1471.752675447572 500.0031676601115Q1464.9044121335264 507.88730273594587 1455.0636303965362 512.2322092923364Q1445.2228486595457 516.5771158487269 1433.8282592798723 516.5771158487269ZM1577.1814014251534 514.5053723251499L1553.1549313947821 514.5053723251499L1507.1737348576166 464.15049501598867L1552.7520923763088 416.0975549552462L1575.3398516264183 416.0975549552462L1524.5821352987837 469.12843431569434L1525.3878133357302 458.3668776793364L1577.1814014251534 514.5053723251499ZM1508.813865147115 514.5053723251499L1490.1681734349227 514.5053723251499L1490.1681734349227 366.5771298986368L1508.813865147115 366.5771298986368L1508.813865147115 514.5053723251499ZM1633.348670286572 516.5771158487269L1633.348670286572 516.5771158487269Q1618.6162718966916 516.5771158487269 1606.8188434985454 509.8439493971018Q1595.021415100399 503.11078294547684 1588.1731517863532 491.51477405656715Q1581.3248884723073 479.91876516765745 1581.3248884723073 465.1863667777771L1581.3248884723073 465.1863667777771Q1581.3248884723073 450.68416211273865 1588.058054923932 439.088153223829Q1594.7912213755571 427.49214433491926 1606.300907617651 420.7589778832943Q1617.810593859745 414.0258114316693 1632.0826047999417 414.0258114316693L1632.0826047999417 414.0258114316693Q1645.7791314280335 414.0258114316693 1656.2241716927338 420.2410420024001Q1666.6979861730392 426.45627257313083 1672.5967003721125 437.4480229343306Q1678.4954145711858 448.41099907992515 1678.4954145711858 462.3089452172536L1678.4954145711858 462.3089452172536Q1678.4954145711858 464.3806887408305 1678.293995061949 466.7401744204598Q1678.0925755527123 469.12843431569434 1677.4595428093971 472.2360496010597L1677.4595428093971 472.2360496010597L1594.3883823570836 472.2360496010597L1594.3883823570836 456.6979731742328L1667.5324384255912 456.6979731742328L1660.6841751115453 462.7117842357269Q1660.6841751115453 452.7559056363156 1657.1737208077066 445.82131967545394Q1653.6344922882627 438.88673371459237 1647.2178422082952 435.0597630390961Q1640.8011921283278 431.2327923635998 1631.6797657814684 431.2327923635998L1631.6797657814684 431.2327923635998Q1622.1555004161355 431.2327923635998 1614.9043980836163 435.3762794107537Q1607.6532957510972 439.5197664579075 1603.71122821318 446.9722882996634Q1599.7691606752628 454.42481014141924 1599.7691606752628 464.58210825006717L1599.7691606752628 464.58210825006717Q1599.7691606752628 474.9408258679518 1603.9126477224165 482.70986408136525Q1608.0561347695705 490.47890229477866 1615.738850336168 494.70871198874823Q1623.3927916871608 498.967295898323 1633.348670286572 498.967295898323L1633.348670286572 498.967295898323Q1641.6356443808797 498.967295898323 1648.5702303417415 496.0611001221943Q1655.5048163026029 493.1549043460655 1660.4827556023088 487.3712870094133L1660.4827556023088 487.3712870094133L1672.4816035096915 499.6003286416382Q1665.4606949020142 507.88730273594587 1655.1882999309453 512.2322092923364Q1644.9446791754817 516.5771158487269 1633.348670286572 516.5771158487269ZM1717.4557025006739 514.5053723251499L1698.8100107884816 514.5053723251499L1698.8100107884816 416.0975549552462L1717.4557025006739 416.0975549552462L1717.4557025006739 514.5053723251499ZM1717.4557025006739 458.3668776793364L1717.4557025006739 458.3668776793364L1710.4060196773912 455.259262393971Q1710.4060196773912 436.4121511725421 1719.0958327901722 425.2189813021057Q1727.8144201185587 414.0258114316693 1744.186948797937 414.0258114316693L1744.186948797937 414.0258114316693Q1751.6394706396932 414.0258114316693 1757.653281701187 416.61549083614045Q1763.6383185470759 419.2051702406116 1768.8176773560185 425.2189813021057L1768.8176773560185 425.2189813021057L1756.6174099393988 437.8508619528039Q1753.5097946540332 434.54182715820184 1749.7691466253527 433.07434216233486Q1746.0284985966723 431.6356313820731 1741.0793335125718 431.6356313820731L1741.0793335125718 431.6356313820731Q1730.720615894687 431.6356313820731 1724.0737720898778 438.25370097127717Q1717.4557025006739 444.90054477608646 1717.4557025006739 458.3668776793364Z " fill="#591e8a" transform="matrix(0.4946807328617764,0,0,0.4946807328617764,0,81.5603021807301)"/></g></svg>